<svg id="svg" version="1.1" xmlns="http://www.w3.org/2000/svg" xmlns:xlink="http://www.w3.org/1999/xlink" width="400" height="400" viewBox="0, 0, 400,400"><g id="svgg"><path id="path0" d="M0.000 200.000 L 0.000 400.000 200.000 400.000 L 400.000 400.000 400.000 200.000 L 400.000 0.000 200.000 0.000 L 0.000 0.000 0.000 200.000 M250.000 185.163 C 250.000 196.493,250.121 200.361,250.488 200.728 C 250.872 201.112,252.493 199.701,258.091 194.108 L 265.206 187.000 269.703 186.888 C 276.566 186.716,276.657 186.391,267.298 195.508 C 262.841 199.848,259.196 203.694,259.198 204.052 C 259.199 204.411,263.518 208.886,268.796 213.996 C 274.074 219.107,278.294 223.448,278.173 223.644 C 278.052 223.840,275.749 224.000,273.056 224.000 L 268.158 224.000 259.136 215.000 C 254.174 210.050,249.934 206.000,249.714 206.000 C 249.131 206.000,246.308 208.360,244.809 210.100 C 241.941 213.430,242.000 213.766,242.000 193.972 L 242.000 176.343 245.453 173.005 C 250.325 168.295,250.000 167.427,250.000 185.163 M115.240 186.040 C 118.277 187.021,121.684 189.155,122.490 190.580 C 122.838 191.196,117.415 196.980,116.829 196.618 C 116.616 196.486,115.582 194.933,114.531 193.167 C 111.345 187.810,110.840 187.342,108.880 187.929 C 104.647 189.197,104.584 196.144,108.784 198.391 C 109.198 198.613,109.777 199.032,110.069 199.321 C 110.361 199.611,112.040 200.806,113.800 201.976 C 122.130 207.518,124.846 213.418,121.635 219.000 C 116.981 227.092,102.813 228.071,96.236 220.755 C 93.834 218.084,93.938 217.563,97.398 214.929 L 100.195 212.798 100.889 213.699 C 101.270 214.195,101.586 214.721,101.591 214.868 C 101.606 215.307,105.614 222.138,106.317 222.923 C 108.130 224.945,112.800 220.966,112.800 217.400 C 112.800 214.494,111.265 212.807,104.600 208.382 C 96.330 202.893,93.943 197.933,96.900 192.388 C 99.717 187.106,108.806 183.960,115.240 186.040 M183.800 186.249 C 194.725 188.137,196.659 201.833,186.700 206.788 C 184.951 207.658,184.605 206.953,192.190 218.000 C 195.255 222.464,195.565 222.800,196.613 222.800 C 197.704 222.800,198.697 223.863,198.133 224.427 C 197.898 224.662,195.034 224.776,190.993 224.710 L 184.247 224.600 180.423 217.089 L 176.600 209.578 174.800 209.689 L 173.000 209.800 172.889 215.746 C 172.771 222.066,172.950 222.800,174.606 222.800 C 175.517 222.800,176.199 223.754,175.778 224.436 C 175.654 224.636,172.233 224.800,168.176 224.800 L 160.800 224.800 160.800 223.827 C 160.800 223.062,161.036 222.826,161.900 222.727 L 163.000 222.600 163.000 205.600 L 163.000 188.600 161.900 188.473 C 161.036 188.374,160.800 188.138,160.800 187.373 L 160.800 186.400 168.300 186.360 C 172.425 186.339,176.790 186.182,178.000 186.013 C 180.199 185.706,180.797 185.730,183.800 186.249 M224.163 186.174 C 242.959 191.069,241.764 220.007,222.554 225.159 C 219.441 225.993,212.914 225.561,210.705 224.373 C 210.323 224.168,209.826 224.000,209.599 224.000 C 207.983 224.000,203.316 219.733,201.868 216.931 C 197.847 209.154,199.797 196.044,205.775 190.656 C 210.565 186.339,217.917 184.547,224.163 186.174 M300.714 186.650 C 308.125 188.805,313.200 196.515,313.200 205.618 C 313.200 208.572,313.427 208.498,304.837 208.328 L 298.354 208.200 295.942 205.704 C 292.710 202.359,292.817 202.224,298.807 202.087 C 304.337 201.961,304.973 201.712,304.569 199.836 C 302.602 190.717,289.772 189.813,284.987 198.458 C 283.397 201.332,283.216 209.071,284.676 211.800 C 287.973 217.963,296.272 220.173,301.887 216.383 C 304.182 214.835,304.210 214.840,306.960 217.379 C 309.795 219.998,309.640 220.666,305.749 222.575 C 294.965 227.866,282.418 224.571,278.045 215.299 C 277.553 214.255,276.977 213.080,276.765 212.689 C 273.675 206.984,277.003 194.398,282.682 190.316 C 288.571 186.082,294.566 184.863,300.714 186.650 M158.400 192.000 C 158.400 197.126,158.339 197.600,157.680 197.600 C 156.645 197.600,156.000 196.808,156.000 195.535 C 156.000 194.635,155.565 194.134,153.651 192.834 C 150.564 190.738,147.262 188.800,146.778 188.800 C 146.534 188.800,146.430 195.014,146.496 205.700 L 146.600 222.600 148.600 222.800 C 150.296 222.970,150.619 223.137,150.728 223.900 L 150.856 224.800 141.600 224.800 L 132.344 224.800 132.472 223.900 C 132.581 223.137,132.904 222.970,134.600 222.800 L 136.600 222.600 136.704 205.700 C 136.770 195.014,136.666 188.800,136.422 188.800 C 135.938 188.800,132.636 190.738,129.549 192.834 C 127.788 194.030,127.200 194.668,127.200 195.382 C 127.200 196.941,126.771 197.600,125.757 197.600 L 124.800 197.600 124.800 192.000 L 124.800 186.400 141.600 186.400 L 158.400 186.400 158.400 192.000 M173.227 188.968 C 172.925 189.331,172.819 192.292,172.892 198.251 L 173.000 207.000 173.909 207.129 C 179.346 207.901,184.374 201.364,182.685 195.720 C 181.364 191.304,175.037 186.787,173.227 188.968 M210.871 191.900 C 207.358 210.342,212.486 221.383,224.657 221.586 C 226.576 221.618,228.130 207.483,226.789 202.200 C 225.151 195.742,223.477 193.297,219.400 191.406 C 213.832 188.823,211.431 188.962,210.871 191.900 M255.432 222.300 C 261.109 228.017,262.301 229.433,261.828 229.905 C 261.348 230.385,237.186 230.546,236.711 230.071 C 236.186 229.546,248.253 216.816,249.285 216.806 C 249.662 216.803,252.428 219.275,255.432 222.300 " stroke="none" fill="#fbfbfb" fill-rule="evenodd"></path><path id="path1" d="M245.453 173.005 L 242.000 176.343 242.000 193.972 C 242.000 213.766,241.941 213.430,244.809 210.100 C 246.308 208.360,249.131 206.000,249.714 206.000 C 249.934 206.000,254.174 210.050,259.136 215.000 L 268.158 224.000 273.056 224.000 C 275.749 224.000,278.052 223.840,278.173 223.644 C 278.294 223.448,274.074 219.107,268.796 213.996 C 263.518 208.886,259.199 204.411,259.198 204.052 C 259.196 203.694,262.841 199.848,267.298 195.508 C 276.657 186.391,276.566 186.716,269.703 186.888 L 265.206 187.000 258.091 194.108 C 252.493 199.701,250.872 201.112,250.488 200.728 C 250.121 200.361,250.000 196.493,250.000 185.163 C 250.000 167.427,250.325 168.295,245.453 173.005 M105.187 186.197 C 99.234 187.832,96.000 191.584,96.000 196.854 C 96.000 201.559,97.647 203.767,104.600 208.382 C 111.265 212.807,112.800 214.494,112.800 217.400 C 112.800 220.966,108.130 224.945,106.317 222.923 C 105.614 222.138,101.606 215.307,101.591 214.868 C 101.586 214.721,101.270 214.195,100.889 213.699 L 100.195 212.798 97.398 214.929 C 93.938 217.563,93.834 218.084,96.236 220.755 C 102.813 228.071,116.981 227.092,121.635 219.000 C 124.846 213.418,122.130 207.518,113.800 201.976 C 112.040 200.806,110.361 199.611,110.069 199.321 C 109.777 199.032,109.198 198.613,108.784 198.391 C 104.584 196.144,104.647 189.197,108.880 187.929 C 110.840 187.342,111.345 187.810,114.531 193.167 C 117.015 197.343,116.781 197.308,119.998 193.974 C 123.050 190.811,123.057 190.748,120.622 188.816 C 116.794 185.778,110.562 184.721,105.187 186.197 M178.000 186.013 C 176.790 186.182,172.425 186.339,168.300 186.360 L 160.800 186.400 160.800 187.373 C 160.800 188.138,161.036 188.374,161.900 188.473 L 163.000 188.600 163.000 205.600 L 163.000 222.600 161.900 222.727 C 161.036 222.826,160.800 223.062,160.800 223.827 L 160.800 224.800 168.176 224.800 C 172.233 224.800,175.654 224.636,175.778 224.436 C 176.199 223.754,175.517 222.800,174.606 222.800 C 172.950 222.800,172.771 222.066,172.889 215.746 L 173.000 209.800 174.800 209.689 L 176.600 209.578 180.423 217.089 L 184.247 224.600 190.993 224.710 C 195.034 224.776,197.898 224.662,198.133 224.427 C 198.697 223.863,197.704 222.800,196.613 222.800 C 195.565 222.800,195.255 222.464,192.190 218.000 C 184.605 206.953,184.951 207.658,186.700 206.788 C 196.659 201.833,194.725 188.137,183.800 186.249 C 180.797 185.730,180.199 185.706,178.000 186.013 M213.094 186.437 C 201.577 190.334,195.979 205.540,201.868 216.931 C 203.316 219.733,207.983 224.000,209.599 224.000 C 209.826 224.000,210.323 224.168,210.705 224.373 C 217.827 228.203,230.477 223.856,234.493 216.199 C 243.593 198.849,230.448 180.566,213.094 186.437 M289.524 186.588 C 282.555 188.508,277.082 194.980,275.941 202.652 C 275.498 205.631,275.954 211.193,276.765 212.689 C 276.977 213.080,277.553 214.255,278.045 215.299 C 282.418 224.571,294.965 227.866,305.749 222.575 C 309.640 220.666,309.795 219.998,306.960 217.379 C 304.210 214.840,304.182 214.835,301.887 216.383 C 296.272 220.173,287.973 217.963,284.676 211.800 C 283.216 209.071,283.397 201.332,284.987 198.458 C 289.772 189.813,302.602 190.717,304.569 199.836 C 304.973 201.712,304.337 201.961,298.807 202.087 C 292.817 202.224,292.710 202.359,295.942 205.704 L 298.354 208.200 304.837 208.328 C 313.427 208.498,313.200 208.572,313.200 205.618 C 313.200 191.938,302.200 183.097,289.524 186.588 M124.800 192.000 L 124.800 197.600 125.757 197.600 C 126.771 197.600,127.200 196.941,127.200 195.382 C 127.200 194.668,127.788 194.030,129.549 192.834 C 132.636 190.738,135.938 188.800,136.422 188.800 C 136.666 188.800,136.770 195.014,136.704 205.700 L 136.600 222.600 134.600 222.800 C 132.904 222.970,132.581 223.137,132.472 223.900 L 132.344 224.800 141.600 224.800 L 150.856 224.800 150.728 223.900 C 150.619 223.137,150.296 222.970,148.600 222.800 L 146.600 222.600 146.496 205.700 C 146.430 195.014,146.534 188.800,146.778 188.800 C 147.262 188.800,150.564 190.738,153.651 192.834 C 155.565 194.134,156.000 194.635,156.000 195.535 C 156.000 196.808,156.645 197.600,157.680 197.600 C 158.339 197.600,158.400 197.126,158.400 192.000 L 158.400 186.400 141.600 186.400 L 124.800 186.400 124.800 192.000 M177.977 189.733 C 183.443 192.399,184.795 200.581,180.423 204.532 C 178.811 205.988,175.414 207.343,173.909 207.129 L 173.000 207.000 172.892 198.251 C 172.759 187.487,172.898 187.256,177.977 189.733 M215.523 190.039 C 221.002 191.321,224.551 194.382,225.912 199.000 C 227.018 202.752,227.196 204.030,227.198 208.235 C 227.202 215.807,226.097 221.610,224.657 221.586 C 212.486 221.383,207.358 210.342,210.871 191.900 C 211.367 189.297,211.729 189.152,215.523 190.039 M242.445 223.231 C 238.128 227.732,236.415 229.775,236.711 230.071 C 237.186 230.546,261.348 230.385,261.828 229.905 C 262.490 229.244,250.568 216.794,249.285 216.806 C 248.908 216.810,245.830 219.701,242.445 223.231 " stroke="none" fill="#0a0a0a" fill-rule="evenodd"></path></g></svg>